<?xml version="1.0" encoding="UTF-8" standalone="no"?>
<svg
   width="800"
   height="800"
   version="1.1"
   viewBox="0 0 800.00001 800.00001"
   id="svg23"
   sodipodi:docname="book (2).svg"
   inkscape:version="1.1.2 (b8e25be833, 2022-02-05)"
   xmlns:inkscape="http://www.inkscape.org/namespaces/inkscape"
   xmlns:sodipodi="http://sodipodi.sourceforge.net/DTD/sodipodi-0.dtd"
   xmlns="http://www.w3.org/2000/svg"
   xmlns:svg="http://www.w3.org/2000/svg">
  <sodipodi:namedview
     id="namedview25"
     pagecolor="#ffffff"
     bordercolor="#666666"
     borderopacity="1.0"
     inkscape:pageshadow="2"
     inkscape:pageopacity="0.0"
     inkscape:pagecheckerboard="0"
     showgrid="false"
     inkscape:zoom="0.535625"
     inkscape:cx="120.42007"
     inkscape:cy="483.54726"
     inkscape:window-width="1920"
     inkscape:window-height="1017"
     inkscape:window-x="-8"
     inkscape:window-y="-8"
     inkscape:window-maximized="1"
     inkscape:current-layer="svg23" />
  <defs
     id="defs13">
    <linearGradient
       id="c"
       x1="397.14"
       x2="107.14"
       y1="394.29"
       y2="711.43"
       gradientUnits="userSpaceOnUse">
      <stop
         stop-opacity=".42"
         offset="0"
         id="stop2" />
      <stop
         stop-opacity="0"
         offset="1"
         id="stop4" />
    </linearGradient>
    <mask
       id="b"
       maskUnits="userSpaceOnUse">
      <circle
         cx="400"
         cy="652.36"
         r="400"
         color="#000000"
         color-rendering="auto"
         fill="#fff"
         image-rendering="auto"
         shape-rendering="auto"
         solid-color="#000000"
         style="isolation:auto;mix-blend-mode:normal"
         id="circle7" />
    </mask>
    <mask
       id="a"
       maskUnits="userSpaceOnUse">
      <circle
         cx="400"
         cy="400"
         r="400"
         color="#000000"
         color-rendering="auto"
         fill="#fff"
         image-rendering="auto"
         shape-rendering="auto"
         solid-color="#000000"
         style="isolation:auto;mix-blend-mode:normal"
         id="circle10" />
    </mask>
    <filter
       inkscape:collect="always"
       style="color-interpolation-filters:sRGB"
       id="filter1229"
       x="-0.070588895"
       y="-0.071828204"
       width="1.1411778"
       height="1.1436564">
      <feGaussianBlur
         inkscape:collect="always"
         stdDeviation="11.045412"
         id="feGaussianBlur1231" />
    </filter>
  </defs>
  <g
     id="g1817">
    <path
       d="m 212.23,474.73 v 323.81 l 181.94,45.251 193.58,-45.251 0.0205,-323.81 -193.33,46.95 -182.2,-46.95 z m 11.153,13.072 165.15,43.652 -0.47995,301.88 -164.67,-41.827 v -303.71 z m 353.15,0 0.10233,303.52 -177.46,41.793 0.49939,-301.66 176.87,-43.652 z m -313.68,82.946 -2.3186,9.9336 88.043,23.265 2.4384,-10.493 z m 271.32,0 -88.163,22.705 2.4384,10.493 88.043,-23.265 z m -271.32,71.074 -2.3186,9.9335 88.043,23.265 2.4384,-10.493 z m 271.32,0 -88.163,22.705 2.4384,10.493 88.043,-23.265 z m -271.32,78.809 -2.3186,9.9335 88.043,23.265 2.4384,-10.493 z m 271.32,0 -88.163,22.705 2.4384,10.493 88.043,-23.265 z"
       fill="#ffffff"
       fill-rule="evenodd"
       mask="url(#b)"
       id="path19"
       transform="translate(0,-252.36)"
       style="fill:#fbab7e;fill-opacity:1" />
    <path
       d="m 212.23,474.73 v 323.81 l 181.94,45.251 193.58,-45.251 0.0205,-323.81 -193.33,46.95 -182.2,-46.95 z m 11.153,13.072 165.15,43.652 -0.47995,301.88 -164.67,-41.827 v -303.71 z m 353.15,0 0.10233,303.52 -177.46,41.793 0.49939,-301.66 176.87,-43.652 z m -313.68,82.946 -2.3186,9.9336 88.043,23.265 2.4384,-10.493 z m 271.32,0 -88.163,22.705 2.4384,10.493 88.043,-23.265 z m -271.32,71.074 -2.3186,9.9335 88.043,23.265 2.4384,-10.493 z m 271.32,0 -88.163,22.705 2.4384,10.493 88.043,-23.265 z m -271.32,78.809 -2.3186,9.9335 88.043,23.265 2.4384,-10.493 z m 271.32,0 -88.163,22.705 2.4384,10.493 88.043,-23.265 z"
       fill="#ffffff"
       fill-rule="evenodd"
       mask="url(#b)"
       id="path912"
       transform="matrix(1.0505872,0,0,1.0505872,-22.562397,-285.97656)"
       style="opacity:0.52884615;fill:#fbab7e;fill-opacity:1;filter:url(#filter1229)" />
  </g>
</svg>
